<?xml version="1.0" encoding="utf-8"?>
<!-- Generator: Adobe Illustrator 24.2.3, SVG Export Plug-In . SVG Version: 6.00 Build 0)  -->
<svg version="1.1" id="Calque_1" xmlns="http://www.w3.org/2000/svg" xmlns:xlink="http://www.w3.org/1999/xlink" x="0px" y="0px"
	 viewBox="0 0 30 37.5" style="enable-background:new 0 0 30 37.5;" xml:space="preserve">
<style type="text/css">
	.st0{fill:#00E92C;}
</style>
<path class="st0" d="M26.7,13.3L17,4.5c-1.1-1-2.9-1-4,0l-9.7,8.8c-0.4,0.4-0.4,1-0.1,1.4C3.4,14.9,3.7,15,4,15h1v9c0,1.1,0.9,2,2,2
	h4c0.6,0,1-0.4,1-1v-6c0-0.6,0.4-1,1-1h4c0.6,0,1,0.4,1,1v6c0,0.6,0.4,1,1,1h4c1.1,0,2-0.9,2-2v-9h1c0.6,0,1-0.5,1-1
	C27,13.7,26.9,13.4,26.7,13.3z"/>
</svg>
